<svg width="428" height="50" viewBox="0 0 428 50" fill="none" xmlns="http://www.w3.org/2000/svg">
<rect width="428" height="50" fill="#EDEDED"/>
<path d="M213.998 25.2387C213.998 29.0351 212.522 32.676 209.895 35.3605C207.268 38.0449 203.704 39.553 199.988 39.553V25.2387H213.998Z" fill="#F9B24E"/>
<path d="M228.011 25.2387C228.011 27.1185 227.649 28.9799 226.945 30.7166C226.241 32.4533 225.209 34.0313 223.908 35.3605C222.607 36.6897 221.063 37.7441 219.363 38.4634C217.663 39.1828 215.841 39.553 214.002 39.553V25.2387H228.011Z" fill="#A8BBC6"/>
<path d="M213.998 25.2281C213.998 23.3479 214.36 21.486 215.064 19.7489C215.768 18.0118 216.8 16.4334 218.102 15.1041C219.403 13.7747 220.948 12.7204 222.649 12.0014C224.349 11.2825 226.171 10.9129 228.011 10.9138V25.2281H213.998Z" fill="#45525B"/>
<path d="M199.988 25.2281C199.988 23.3482 200.35 21.4866 201.054 19.7497C201.758 18.0128 202.79 16.4346 204.091 15.1053C205.392 13.776 206.936 12.7217 208.636 12.0025C210.336 11.2833 212.158 10.9133 213.998 10.9138V25.2281H199.988Z" fill="#FE7E02"/>
<path d="M353.007 32H345.699V19.148H353.007V21.074H348.003V24.35H352.683V26.276H348.003V30.056H353.007V32ZM360.741 22.064C361.833 22.064 362.685 22.346 363.297 22.91C363.921 23.474 364.232 24.386 364.232 25.646V32H361.965V26.096C361.965 25.364 361.821 24.818 361.533 24.458C361.245 24.086 360.789 23.9 360.165 23.9C359.253 23.9 358.629 24.188 358.293 24.764C357.957 25.328 357.789 26.15 357.789 27.23V32H355.521V22.244H357.267L357.591 23.522H357.717C357.933 23.186 358.197 22.91 358.509 22.694C358.821 22.478 359.169 22.322 359.553 22.226C359.937 22.118 360.333 22.064 360.741 22.064ZM370.849 30.362C371.137 30.362 371.413 30.338 371.677 30.29C371.941 30.23 372.187 30.164 372.415 30.092V31.784C372.175 31.892 371.863 31.982 371.479 32.054C371.095 32.138 370.693 32.18 370.273 32.18C369.721 32.18 369.217 32.09 368.761 31.91C368.317 31.718 367.957 31.394 367.681 30.938C367.417 30.482 367.285 29.846 367.285 29.03V23.954H365.971V22.964L367.411 22.172L368.131 20.102H369.553V22.244H372.325V23.954H369.553V29.012C369.553 29.468 369.673 29.81 369.913 30.038C370.153 30.254 370.465 30.362 370.849 30.362ZM379.494 22.064C379.638 22.064 379.806 22.07 379.998 22.082C380.19 22.094 380.352 22.118 380.484 22.154L380.286 24.26C380.178 24.236 380.034 24.218 379.854 24.206C379.686 24.182 379.536 24.17 379.404 24.17C379.044 24.17 378.696 24.23 378.36 24.35C378.036 24.458 377.742 24.626 377.478 24.854C377.226 25.07 377.022 25.352 376.866 25.7C376.722 26.048 376.65 26.462 376.65 26.942V32H374.382V22.244H376.128L376.452 23.936H376.56C376.752 23.588 376.992 23.276 377.28 23C377.568 22.712 377.898 22.484 378.27 22.316C378.654 22.148 379.062 22.064 379.494 22.064ZM385.828 22.064C387.088 22.064 388.042 22.34 388.69 22.892C389.35 23.432 389.68 24.284 389.68 25.448V32H388.078L387.628 30.65H387.556C387.28 30.998 386.992 31.292 386.692 31.532C386.404 31.76 386.068 31.922 385.684 32.018C385.312 32.126 384.856 32.18 384.316 32.18C383.74 32.18 383.218 32.072 382.75 31.856C382.294 31.64 381.934 31.31 381.67 30.866C381.406 30.41 381.274 29.84 381.274 29.156C381.274 28.148 381.64 27.392 382.372 26.888C383.116 26.372 384.238 26.09 385.738 26.042L387.43 25.988V25.502C387.43 24.878 387.28 24.434 386.98 24.17C386.68 23.906 386.26 23.774 385.72 23.774C385.228 23.774 384.754 23.846 384.298 23.99C383.842 24.134 383.398 24.302 382.966 24.494L382.246 22.91C382.726 22.658 383.272 22.454 383.884 22.298C384.508 22.142 385.156 22.064 385.828 22.064ZM386.242 27.428C385.246 27.464 384.556 27.638 384.172 27.95C383.788 28.25 383.596 28.658 383.596 29.174C383.596 29.63 383.734 29.96 384.01 30.164C384.286 30.368 384.64 30.47 385.072 30.47C385.732 30.47 386.29 30.284 386.746 29.912C387.202 29.528 387.43 28.964 387.43 28.22V27.392L386.242 27.428ZM397.634 22.064C397.778 22.064 397.946 22.07 398.138 22.082C398.33 22.094 398.492 22.118 398.624 22.154L398.426 24.26C398.318 24.236 398.174 24.218 397.994 24.206C397.826 24.182 397.676 24.17 397.544 24.17C397.184 24.17 396.836 24.23 396.5 24.35C396.176 24.458 395.882 24.626 395.618 24.854C395.366 25.07 395.162 25.352 395.006 25.7C394.862 26.048 394.79 26.462 394.79 26.942V32H392.522V22.244H394.268L394.592 23.936H394.7C394.892 23.588 395.132 23.276 395.42 23C395.708 22.712 396.038 22.484 396.41 22.316C396.794 22.148 397.202 22.064 397.634 22.064Z" fill="#4088CB"/>
</svg>
